<?xml version="1.0" encoding="UTF-8"?>
<svg width="111px" height="42px" viewBox="0 0 111 42" version="1.1" xmlns="http://www.w3.org/2000/svg" xmlns:xlink="http://www.w3.org/1999/xlink">
    <title>New Mask</title>
    <g id="Page-1" stroke="none" stroke-width="1" fill="none" fill-rule="evenodd">
        <g id="Artboard" transform="translate(-729.000000, -266.000000)">
            <g id="New-Mask" transform="translate(729.000000, 266.000000)">
                <path d="M11.6886419,6.75015599e-14 L15.9584579,0.272679502 L38.0754794,2.42229855 L55.4494512,3.24572573 L72.823423,2.42229855 L94.9404446,0.272679502 L99.2102606,6.75015599e-14 L100.894773,6.75015599e-14 L102.534258,0.501822457 L103.622891,1.346926 L104.790947,2.97894121 L106.617524,6.76239527 L109.033328,13.570678 L110.143137,17.5011275 L110.683129,20.7572073 L110.898902,23.6692675 L110.314213,25.3772595 L109.41844,26.6223349 L106.206703,29.7424511 L101.845425,32.7807247 L96.1808174,35.917366 L90.0663127,38.4852393 L84.8533961,40.2615347 L80.3824461,41.2754835 L77.5471697,41.5 L75.6401286,41.5 L73.0063441,40.6770677 L69.7256277,39.099335 L66.5712709,36.850477 L63.4442186,34.3844587 L60.4811988,31.9956106 L58.3672166,30.8677359 L56.740571,30.3518132 L54.1583315,30.3518132 L52.5316858,30.8677359 L50.4177037,31.9956106 L47.4546839,34.3844587 L44.3276316,36.850477 L41.1732747,39.099335 L37.8925584,40.6770677 L35.2587739,41.5 L33.3517327,41.5 L30.5164564,41.2754835 L26.0455063,40.2615347 L20.8325897,38.4852393 L14.7180851,35.917366 L9.0534771,32.7807247 L4.69219948,29.7424511 L1.48046283,26.6223349 L0.584689687,25.3772595 L1.63424829e-13,23.6692675 L0.215773955,20.7572073 L0.75576551,17.5011275 L1.86557448,13.570678 L4.28137824,6.76239527 L6.10795513,2.97894121 L7.27601157,1.346926 L8.36464421,0.501822457 L10.0041294,6.75015599e-14 L11.6886419,6.75015599e-14 Z M17.5707819,16.5560251 C16.9382796,19.8099671 21.6294179,23.4593405 28.0487324,24.7071288 C34.4680469,25.9549171 40.1846738,24.3286083 40.8171761,21.0746664 C41.4496783,17.8207245 36.7585401,14.1713511 30.3392256,12.9235628 C23.9199111,11.6757745 18.2032841,13.3020832 17.5707819,16.5560251 Z M93.1994747,16.5560251 C92.5669725,13.3020832 86.8503455,11.6757745 80.431031,12.9235628 C74.0117165,14.1713511 69.3205783,17.8207245 69.9530805,21.0746664 C70.5855827,24.3286083 76.3022097,25.9549171 82.7215242,24.7071288 C89.1408387,23.4593405 93.831977,19.8099671 93.1994747,16.5560251 Z" id="Combined-Shape" fill="#5DBFF9"></path>
                <path d="M77.4519707,25.1010287 L73.542967,26.4464663 L72.7217092,24.0624053 C73.9938442,24.6443341 75.6201994,25.0046529 77.4519707,25.1010287 Z M100.869398,-7.10542736e-14 L102.508883,0.501822457 L103.597516,1.346926 L104.765572,2.97894121 L106.592149,6.76239527 L109.007953,13.570678 L109.178625,14.176 L91.9385591,20.1127002 C92.9343668,18.9637851 93.4030734,17.7339938 93.1740995,16.5560251 C92.5415973,13.3020832 86.8249703,11.6757745 80.4056558,12.9235628 C75.8962635,13.8000999 72.2396704,15.8617416 70.6822352,18.1389091 L65.3926248,2.773 L72.7980478,2.42229855 L94.9150693,0.272679502 L99.1848854,-7.10542736e-14 L100.869398,-7.10542736e-14 Z" id="Combined-Shape" fill="#8ED081"></path>
                <path d="M100.865872,0.00015574183 L102.505357,0.501978199 L103.59399,1.34708174 L104.762046,2.97909695 L106.588623,6.76255101 L109.004427,13.5708337 L110.114236,17.5012832 L110.654227,20.7573631 L110.870001,23.6694232 L110.285312,25.3774153 L109.389538,26.6224906 L106.177802,29.7426068 L101.816524,32.7808804 L96.1519162,35.9175217 L90.0374115,38.485395 L84.8244949,40.2616904 L80.3535448,41.2756393 L77.5182685,41.5001557 L75.6112273,41.5001557 L72.9774428,40.6772235 L69.6967265,39.0994908 L66.5423697,36.8506328 L63.4153173,34.3846144 L60.8560988,32.32 L71.7285327,23.517487 C74.026643,25.0428713 78.1865081,25.5831845 82.692623,24.7072845 C89.1119375,23.4594962 93.8030757,19.8101228 93.1705735,16.5561809 C92.7070714,14.1716694 89.5133632,12.6612069 85.3136402,12.5153042 L100.769099,1.77635684e-14 L100.865872,0.00015574183 Z" id="Combined-Shape" fill="#ED756C"></path>
            </g>
        </g>
    </g>
</svg>